<svg xmlns="http://www.w3.org/2000/svg" width="256" height="256"><path fill-opacity=".016" d="M0 128.004v128.004l128.25-.254 128.25-.254.254-127.75L257.008 0H0v128.004m.485.496c0 70.4.119 99.053.265 63.672.146-35.38.146-92.98 0-128C.604 29.153.485 58.1.485 128.5" fill="#1976D2" fill-rule="evenodd"/><path fill-opacity=".279" d="M132.762 58.942c-8.012 2.561-14.777 7.176-21.875 14.923l-6.08 6.635-8.791.057c-7.849.051-9.504.409-15.446 3.334-6.918 3.405-12.838 9.514-15.537 16.03-1.042 2.515-2.862 3.92-8.613 6.649-16.52 7.839-24.186 22.043-21.442 39.729 1.49 9.602 5.197 17.467 10.846 23.012 6.774 6.649 13.763 9.501 26.289 10.726 17.551 1.717 27.859-.372 32.792-6.644L107 170.73v13.435c0 13.81.528 15.835 4.129 15.835 3.832 0 4.871-2.69 4.871-12.607v-9.463l2.246 1.201c1.235.662 4.78 1.202 7.877 1.202 6.269 0 13.787-3.554 16.109-7.614 1.163-2.035 1.31-1.762 1.768 3.281l.5 5.5h8l.5-13.394c.423-11.326.77-13.564 2.25-14.495 1.274-.801 2.226-.801 3.5 0 1.48.931 1.827 3.169 2.25 14.495l.5 13.394 2.81.322c5.083.583 5.69-.896 5.69-13.863 0-6.487.273-12.507.607-13.377.722-1.881 4.933-2.111 6.084-.332.445.688 1.034 6.828 1.309 13.645.598 14.815.86 15.176 9.685 13.325 13.551-2.842 26.99-13.454 31.304-24.72 4.51-11.775 2.748-26.911-4.28-36.761-3.033-4.251-10.412-11.14-12.776-11.928-.596-.199-2.175-4.562-3.508-9.696-1.333-5.134-3.887-12.085-5.675-15.446-6.116-11.503-18.024-20.764-31.25-24.306-7.241-1.939-21.777-1.647-28.738.579m7.64 8.544c-8.795 1.913-15.267 5.558-20.712 11.664-11.576 12.98-9.101 11.632-22.049 12.013-10.915.32-11.689.486-15.799 3.378-2.977 2.094-5.364 5.052-7.665 9.497-4.399 8.498-4.557 8.659-11.61 11.872-8.157 3.715-11.95 7.13-15.124 13.618-3.584 7.324-3.865 17.958-.639 24.166 4.191 8.065 12.796 14.579 20.99 15.889l3.978.636-.843-4.359c-.463-2.398-.861-12.742-.885-22.988-.048-20.364.212-21.317 5.646-20.694l2.81.322.283 11.844c.256 10.759.44 11.777 2 11.104.944-.408 4.454-.948 7.799-1.2 7.423-.561 13.251 1.978 16.674 7.263 1.234 1.905 2.469 3.464 2.744 3.464.275 0 1.51-1.559 2.744-3.464 2.99-4.616 8.867-7.511 15.248-7.511 6.846 0 10.918 1.895 15.296 7.119 3.289 3.923 3.675 4.136 3.692 2.031.012-1.337 1.539-3.869 3.542-5.872 3.436-3.436 3.661-3.506 9.25-2.848 6.755.795 8.23.795 14.352-.006 3.275-.429 5.532-.136 7.733 1.002 4.775 2.469 6.143 6.149 6.143 16.524 0 10.271.238 10.5 7.216 6.94 5.881-3 13.97-10.982 16.819-16.597 5.538-10.911 1.972-24.46-8.535-32.431-2.75-2.086-6.238-4.743-7.75-5.904-1.873-1.437-2.75-3.027-2.75-4.985 0-9.83-5.458-22.405-13.344-30.743-5.777-6.108-11.618-9.443-19.455-11.106-6.582-1.396-10.042-1.326-17.799.362m-56.546 87.03c-6.613 3.593-5.079 13.769 2.447 16.225 7.353 2.401 14.592-3.158 13.272-10.193-1.232-6.565-9.147-9.602-15.719-6.032m35.067 1.407c-3.683 3.683-3.838 7.836-.443 11.871 3.05 3.625 7.506 4.656 12.002 2.778 3.968-1.658 5.518-4.162 5.518-8.917 0-7.937-11.134-11.674-17.077-5.732" fill="#1976D2" fill-rule="evenodd"/><path fill-opacity=".154" d="M140 57.625c-11.984 2.318-22.796 8.7-30.169 17.807l-4.668 5.767-9.332.179c-14.598.281-22.424 4.814-29.555 17.122-2.477 4.275-3.977 5.535-10.337 8.688C41.997 114.1 35 124.84 35 139.327c0 18.802 8.217 31.807 23.855 37.755 4.404 1.675 8.68 2.263 19.45 2.674 16.268.622 20.135-.287 25.233-5.929 1.901-2.105 3.626-3.827 3.833-3.827.206 0 .148 5.97-.131 13.267-.551 14.44.028 16.258 4.955 15.56 2.215-.314 2.316-.729 2.591-10.684.281-10.18.324-10.345 2.5-9.659 1.218.385 4.689.912 7.714 1.172 6.718.579 13.413-2.411 16.5-7.367 1.1-1.767 2.338-3.229 2.75-3.25.412-.022.75 2.634.75 5.902 0 6.428.791 7.579 4.557 6.634 2.416-.606 2.443-.743 2.458-12.344.016-13.175 1.076-16.731 4.985-16.731 4.109 0 5.045 3.484 4.334 16.137-.604 10.74-.548 11.178 1.558 12.305 1.201.643 3.067.889 4.146.546 1.815-.576 1.962-1.584 1.962-13.484 0-10.537.294-13.155 1.625-14.486 2.227-2.228 5.567-1.529 7.085 1.482.693 1.375 1.267 1.974 1.275 1.332.008-.643.282-1.993.609-3 .495-1.524.413-1.58-.484-.332-1.228 1.706-1.194 1.783-1.432-3.262-.129-2.728.18-3.624 1.124-3.261.716.275 1.06.109.765-.369-.898-1.453-5.616-1.933-9.217-.939-1.871.517-3.135 1.37-2.809 1.897.325.526-1.757.031-4.628-1.1-3.359-1.324-6.243-1.833-8.09-1.427-4.057.891-8.56 4.989-9.329 8.488-.604 2.75-2.494 4.247-2.494 1.976 0-.549-1.604-2.773-3.565-4.943-6.887-7.623-19.032-7.721-26.494-.214-1.998 2.01-3.927 4.329-4.287 5.154-.504 1.157-.79 1.206-1.25.213-4.046-8.742-16.077-13.466-24.905-9.777l-3.437 1.436-.281-11.579c-.237-9.748-.558-11.754-2.031-12.681-1.275-.802-2.225-.802-3.5.001-1.561.984-1.779 3.362-2.021 21.966-.158 12.185.148 22.063.736 23.75l1.007 2.888-3.736-.687C55.301 167.965 44 155.854 44 143.485c0-13.062 6.183-22.343 18.783-28.194 6.933-3.22 7.403-3.655 9.802-9.086 1.385-3.138 3.958-7.206 5.717-9.04 5.546-5.784 8.034-6.609 20.025-6.638l10.826-.027 3.174-3.655a609.063 609.063 0 006.962-8.215c2.622-3.155 6.148-5.725 11.447-8.345 7.525-3.72 7.856-3.785 19.211-3.785 13.987 0 17.951 1.478 27.332 10.192 3.421 3.178 4.871 4.224 3.221 2.323-1.65-1.901-3.73-4.017-4.622-4.702-1.273-.979-1.461-2.122-.877-5.32.702-3.839.571-4.163-2.291-5.643-8.84-4.571-24.502-7.313-32.71-5.725m37.304 9.056c.401.649.271 1.463-.288 1.809-.559.345-1.016 1.528-1.016 2.628s.45 1.722 1 1.382c.55-.34 1-1.545 1-2.678 0-1.963.164-1.935 3.5.61 4.97 3.791 4.356 2.414-.712-1.598-2.317-1.834-3.884-2.803-3.484-2.153M171 69.378c0 .207.787.995 1.75 1.75 1.586 1.243 1.621 1.208.378-.378-1.307-1.666-2.128-2.195-2.128-1.372m4 78.99c0 .817-.787 1.653-1.75 1.858-1.21.258-.901.547 1 .935 2.191.447 2.75.195 2.75-1.241 0-.991-.45-2.08-1-2.42-.55-.34-1 .051-1 .868m-90.686 5.531c-6.356 3.978-7.079 9.536-1.914 14.701 2.427 2.427 4.301 3.4 6.55 3.4 3.859 0 8.636-2.357 10.02-4.945 4.713-8.805-6.1-18.512-14.656-13.156m36.067.011c-4.151 2.53-5.786 7.186-4.014 11.425 1.827 4.371 3.895 5.828 9.107 6.415 4.09.461 4.773.203 7.999-3.023 5.425-5.425 4.407-11.669-2.484-15.233-3.858-1.995-6.848-1.878-10.608.416m58.698 7.673c.048 1.165.285 1.402.604.605.289-.722.253-1.585-.079-1.917-.332-.332-.568.258-.525 1.312m-.88 9.467c-.191 7.259.672 9.95 3.192 9.95.545 0 .244-.562-.668-1.25-1.225-.923-1.747-3.214-1.993-8.75l-.333-7.5-.198 7.55" fill="#1976D2" fill-rule="evenodd"/><path fill-opacity=".105" d="M111.368 74.464l-6.76 7.464-5.569-.582c-6.767-.707-16.271 1.513-22.022 5.144-4.255 2.685-9.351 8.902-11.608 14.161-1.075 2.503-3.088 3.99-9.79 7.234-9.146 4.427-13.809 8.881-17.778 16.979-1.898 3.872-2.275 6.284-2.287 14.636-.031 19.826 7.746 31.903 24.213 37.604 7.912 2.739 29.989 3.726 35.733 1.597 2.2-.816 3.893-1.966 3.762-2.556-.131-.59.347-.848 1.063-.574.716.275 2.173-.521 3.238-1.768 1.649-1.931 1.668-2.06.132-.867-1.691 1.312-1.728 1.23-.577-1.296.918-2.013 1.462-2.373 2.15-1.418.613.851.68.609.2-.722-.397-1.1-.901-5.15-1.12-9-.22-3.85-.449-7.675-.51-8.5-.17-2.312-2.005-4.15-3.55-3.557-.766.294-1.149.141-.853-.338.554-.896-2.902-2.562-7.569-3.65-2.409-.561-6.654.219-11.116 2.044-1.604.655-1.75-.205-1.75-10.321 0-8.699-.333-11.368-1.571-12.607-1.904-1.904-2.539-1.942-4.795-.293-1.588 1.162-1.718 3.242-1.426 22.75.177 11.81.727 22.329 1.223 23.376.835 1.763.586 1.854-3.347 1.225-9.579-1.531-21.394-10.978-24.141-19.3-1.978-5.994-.743-17.089 2.583-23.199 3.024-5.556 9.835-11.346 15.638-13.294 4.743-1.591 6.754-3.624 9.328-9.428C77.272 94.63 84.607 90 96.901 90c5.744 0 8.136-.363 8.227-1.25.07-.687.233-2.247.361-3.465.313-2.954 2.851-6.698 8.84-13.035 2.729-2.888 4.7-5.25 4.38-5.25-.319 0-3.623 3.359-7.341 7.464M109 88.121c-1.925 1.032-2.762 1.877-1.861 1.877.902.001 2.702-.883 4-1.965 2.861-2.383 2.438-2.365-2.139.088m-25.027 65.583c-3.859 2.66-4.907 4.492-4.941 8.645-.069 8.272 10.688 12.806 17.559 7.401 1.573-1.238 3.081-2.136 3.351-1.996.835.431.473-8.143-.429-10.168-.672-1.509-.552-1.733.567-1.058 1.218.734 1.222.612.027-.86-.765-.944-1.61-1.498-1.876-1.232-.267.266-1.755-.173-3.308-.976-3.749-1.939-7.918-1.846-10.95.244M105.5 155c.853 1.65 1.776 3 2.051 3 .275 0-.198-1.35-1.051-3s-1.776-3-2.051-3c-.275 0 .198 1.35 1.051 3m4.454-.914c-.614 1.147-.928 2.274-.697 2.504.23.23.932-.708 1.559-2.086 1.378-3.024.707-3.35-.862-.418M105 162.5c0 1.375.45 2.5 1 2.5s1-1.125 1-2.5-.45-2.5-1-2.5-1 1.125-1 2.5m3.457 21l.043 15 2.5.164c2.152.141 2.19.097.276-.316-2.157-.466-2.233-.919-2.543-15.164l-.319-14.684.043 15m5.908 4c.003 5.5.171 7.622.373 4.716.203-2.905.201-7.405-.004-10-.206-2.594-.371-.216-.369 5.284" fill="#1976D2" fill-rule="evenodd"/></svg>